# xmcd
#
# Track frame offsets: 
#        150
#        19563
#        38424
#        54142
#        68182
#        86130
#        101394
#        118452
#        130235
#        149049
#        162345
#        175246
#        192250
#        209080
#        221504
#        236463
#        251865
#        267468
#        282836
#        301257
#
# Disc length: 4245 seconds
#
# Revision: 3
# Processed by: cddbd v1.5.2PL0 Copyright (c) Steve Scherf et al.
# Submitted via: ExactAudioCopyFreeDBPlugin 1.0
#
DISCID=2c109314
DTITLE=Crystal Gayle - 100 Hits Legends [CD 3)
DYEAR=2011
DGENRE=country
TTITLE0=Cry
TTITLE1=Nobody Should Have to Love This Way
TTITLE2=Tennessee Nights
TTITLE3=Nobody's Angel
TTITLE4=Straight To The Heart
TTITLE5=Only Love Can Save Me Now
TTITLE6=Nobody Wants To Be Alone
TTITLE7=Take Me Home
TTITLE8=Cage The Songbird
TTITLE9=Come Back (When You Can Stay Forever)
TTITLE10=Help Yourselves, To Each Other
TTITLE11=Lover Man
TTITLE12=New Way To Say I Love You
TTITLE13=Coming To The Dance
TTITLE14=Love Does That To Fools
TTITLE15=Touch And Go
TTITLE16=You Were There For Me
TTITLE17=Heat
TTITLE18=Hopeless Romantic
TTITLE19=Love Found Me
EXTD=Disc 3 of 5
EXTT0=
EXTT1=
EXTT2=
EXTT3=
EXTT4=
EXTT5=
EXTT6=
EXTT7=
EXTT8=
EXTT9=
EXTT10=
EXTT11=
EXTT12=
EXTT13=
EXTT14=
EXTT15=
EXTT16=
EXTT17=
EXTT18=
EXTT19=
PLAYORDER=
